<svg id="visual" viewBox="0 0 900 600" width="900" height="600" xmlns="http://www.w3.org/2000/svg" xmlns:xlink="http://www.w3.org/1999/xlink" version="1.1"><rect x="0" y="0" width="900" height="600" fill="#FFFFFF"></rect><defs><linearGradient id="grad1_0" x1="33.3%" y1="0%" x2="100%" y2="100%"><stop offset="20%" stop-color="#ffffff" stop-opacity="1"></stop><stop offset="80%" stop-color="#ffffff" stop-opacity="1"></stop></linearGradient></defs><defs><linearGradient id="grad2_0" x1="0%" y1="0%" x2="66.7%" y2="100%"><stop offset="20%" stop-color="#ffffff" stop-opacity="1"></stop><stop offset="80%" stop-color="#ffffff" stop-opacity="1"></stop></linearGradient></defs><g transform="translate(900, 0)"><path d="M0 351.5C-66.5 345.2 -132.9 338.9 -175.8 304.4C-218.6 270 -237.9 207.4 -263.3 152C-288.6 96.6 -320.1 48.3 -351.5 0L0 0Z" fill="#C62368"></path></g><g transform="translate(0, 600)"><path d="M0 -351.5C45.6 -315.5 91.2 -279.4 147 -254.6C202.8 -229.8 268.7 -216.3 304.4 -175.8C340.2 -135.2 345.9 -67.6 351.5 0L0 0Z" fill="#C62368"></path></g></svg>